<svg width="150" height="125" viewBox="0 0 150 125" fill="none" xmlns="http://www.w3.org/2000/svg">
<rect x="0.5" y="0.5" width="99" height="99" stroke="white"/>
<path d="M12.736 32.8H15.296L16.8 43.424H16.992L18.496 32.8H21.056V44H19.808V33.376H19.616L18.112 44H15.68L14.176 33.376H13.984V44H12.736V32.8ZM23.9569 44H22.7089V36.064H23.9569V37.408H24.1489C24.6395 36.3627 25.4929 35.84 26.7089 35.84C27.6262 35.84 28.3569 36.128 28.9009 36.704C29.4449 37.2693 29.7169 38.1227 29.7169 39.264V44H28.4689V39.52C28.4689 38.688 28.2822 38.064 27.9089 37.648C27.5355 37.232 27.0289 37.024 26.3889 37.024C25.6315 37.024 25.0342 37.2853 24.5969 37.808C24.1702 38.32 23.9569 39.008 23.9569 39.872V44ZM32.9378 40.416C32.9698 41.2053 33.2151 41.84 33.6738 42.32C34.1324 42.8 34.7724 43.04 35.5938 43.04C35.9671 43.04 36.2924 42.9973 36.5698 42.912C36.8471 42.8267 37.0818 42.7093 37.2738 42.56C37.4764 42.4107 37.6364 42.24 37.7538 42.048C37.8818 41.8453 37.9831 41.632 38.0578 41.408L39.2418 41.728C39.0178 42.464 38.6018 43.0667 37.9938 43.536C37.3964 43.9947 36.5858 44.224 35.5618 44.224C34.9964 44.224 34.4738 44.128 33.9938 43.936C33.5244 43.7333 33.1191 43.4507 32.7778 43.088C32.4364 42.7253 32.1698 42.2933 31.9778 41.792C31.7858 41.2907 31.6898 40.736 31.6898 40.128V39.744C31.6898 39.1893 31.7858 38.672 31.9778 38.192C32.1804 37.712 32.4578 37.3013 32.8098 36.96C33.1618 36.608 33.5724 36.336 34.0418 36.144C34.5218 35.9413 35.0391 35.84 35.5938 35.84C36.2444 35.84 36.8044 35.9627 37.2738 36.208C37.7538 36.4427 38.1431 36.736 38.4418 37.088C38.7511 37.44 38.9751 37.824 39.1138 38.24C39.2631 38.656 39.3378 39.04 39.3378 39.392V40.416H32.9378ZM35.5938 37.024C35.2418 37.024 34.9111 37.0827 34.6018 37.2C34.3031 37.3067 34.0364 37.4613 33.8018 37.664C33.5778 37.8667 33.3911 38.1067 33.2418 38.384C33.1031 38.6507 33.0124 38.944 32.9698 39.264H38.0898C38.0684 38.9227 37.9831 38.6133 37.8338 38.336C37.6951 38.0587 37.5084 37.824 37.2738 37.632C37.0498 37.44 36.7884 37.2907 36.4898 37.184C36.2018 37.0773 35.9031 37.024 35.5938 37.024ZM48.9746 44H47.7266V38.304C47.7266 37.9307 47.6413 37.6267 47.4706 37.392C47.3 37.1467 47.028 37.024 46.6546 37.024C46.3026 37.024 46.0146 37.1573 45.7906 37.424C45.5773 37.68 45.4706 38.08 45.4706 38.624V44H44.2226V38.24C44.2226 37.888 44.1266 37.6 43.9346 37.376C43.7426 37.1413 43.4866 37.024 43.1666 37.024C42.7826 37.024 42.484 37.1627 42.2706 37.44C42.068 37.7173 41.9666 38.08 41.9666 38.528V44H40.7186V36.064H41.9666V36.928H42.1586C42.2973 36.5547 42.5 36.2827 42.7666 36.112C43.0333 35.9307 43.348 35.84 43.7106 35.84C44.0946 35.84 44.4093 35.9413 44.6546 36.144C44.9106 36.3467 45.0866 36.608 45.1826 36.928H45.3746C45.7373 36.2027 46.3133 35.84 47.1026 35.84C47.7 35.84 48.1586 36.032 48.4786 36.416C48.8093 36.7893 48.9746 37.28 48.9746 37.888V44ZM58.1475 40.128C58.1475 40.7893 58.0355 41.376 57.8115 41.888C57.5982 42.3893 57.3102 42.816 56.9475 43.168C56.5848 43.5093 56.1582 43.7707 55.6675 43.952C55.1875 44.1333 54.6862 44.224 54.1635 44.224C53.6302 44.224 53.1235 44.1333 52.6435 43.952C52.1635 43.7707 51.7422 43.5093 51.3795 43.168C51.0168 42.816 50.7235 42.3893 50.4995 41.888C50.2862 41.376 50.1795 40.7893 50.1795 40.128V39.936C50.1795 39.2853 50.2862 38.7093 50.4995 38.208C50.7235 37.696 51.0168 37.264 51.3795 36.912C51.7528 36.56 52.1795 36.2933 52.6595 36.112C53.1395 35.9307 53.6408 35.84 54.1635 35.84C54.6862 35.84 55.1875 35.9307 55.6675 36.112C56.1475 36.2933 56.5688 36.56 56.9315 36.912C57.3048 37.264 57.5982 37.696 57.8115 38.208C58.0355 38.7093 58.1475 39.2853 58.1475 39.936V40.128ZM54.1635 43.04C54.5475 43.04 54.8995 42.976 55.2195 42.848C55.5502 42.7093 55.8382 42.512 56.0835 42.256C56.3288 42 56.5208 41.696 56.6595 41.344C56.7982 40.9813 56.8675 40.576 56.8675 40.128V39.936C56.8675 39.5093 56.7982 39.12 56.6595 38.768C56.5208 38.4053 56.3288 38.096 56.0835 37.84C55.8382 37.584 55.5502 37.3867 55.2195 37.248C54.8888 37.0987 54.5368 37.024 54.1635 37.024C53.7902 37.024 53.4382 37.0987 53.1075 37.248C52.7768 37.3867 52.4888 37.584 52.2435 37.84C51.9982 38.096 51.8062 38.4053 51.6675 38.768C51.5288 39.12 51.4595 39.5093 51.4595 39.936V40.128C51.4595 40.576 51.5288 40.9813 51.6675 41.344C51.8062 41.696 51.9982 42 52.2435 42.256C52.4888 42.512 52.7715 42.7093 53.0915 42.848C53.4222 42.976 53.7795 43.04 54.1635 43.04ZM61.2244 44H59.9764V36.064H61.2244V37.408H61.4164C61.907 36.3627 62.7604 35.84 63.9764 35.84C64.8937 35.84 65.6244 36.128 66.1684 36.704C66.7124 37.2693 66.9844 38.1227 66.9844 39.264V44H65.7364V39.52C65.7364 38.688 65.5497 38.064 65.1764 37.648C64.803 37.232 64.2964 37.024 63.6564 37.024C62.899 37.024 62.3017 37.2853 61.8644 37.808C61.4377 38.32 61.2244 39.008 61.2244 39.872V44ZM71.7572 33.696C71.7572 33.3867 71.8639 33.1253 72.0772 32.912C72.3012 32.688 72.5679 32.576 72.8772 32.576C73.1866 32.576 73.4479 32.688 73.6612 32.912C73.8852 33.1253 73.9972 33.3867 73.9972 33.696C73.9972 34.0053 73.8852 34.272 73.6612 34.496C73.4479 34.7093 73.1866 34.816 72.8772 34.816C72.5679 34.816 72.3012 34.7093 72.0772 34.496C71.8639 34.272 71.7572 34.0053 71.7572 33.696ZM69.4852 42.848H72.2692V37.216H69.7732V36.064H73.5172V42.848H76.1092V44H69.4852V42.848ZM86.0341 41.184C85.9488 41.6213 85.7995 42.0267 85.5861 42.4C85.3835 42.7733 85.1221 43.0987 84.8021 43.376C84.4821 43.6427 84.1088 43.8507 83.6821 44C83.2555 44.1493 82.7808 44.224 82.2581 44.224C81.7035 44.224 81.1755 44.1333 80.6741 43.952C80.1835 43.7707 79.7515 43.5093 79.3781 43.168C79.0048 42.816 78.7061 42.3893 78.4821 41.888C78.2688 41.3867 78.1621 40.8107 78.1621 40.16V39.968C78.1621 39.328 78.2688 38.752 78.4821 38.24C78.7061 37.728 79.0048 37.296 79.3781 36.944C79.7515 36.592 80.1835 36.32 80.6741 36.128C81.1755 35.936 81.7035 35.84 82.2581 35.84C82.7595 35.84 83.2235 35.9147 83.6501 36.064C84.0768 36.2133 84.4501 36.4267 84.7701 36.704C85.1008 36.9707 85.3675 37.2907 85.5701 37.664C85.7835 38.0373 85.9275 38.4427 86.0021 38.88L84.7541 39.168C84.7221 38.8907 84.6421 38.624 84.5141 38.368C84.3968 38.1013 84.2315 37.872 84.0181 37.68C83.8155 37.4773 83.5648 37.3173 83.2661 37.2C82.9675 37.0827 82.6208 37.024 82.2261 37.024C81.8421 37.024 81.4795 37.0987 81.1381 37.248C80.8075 37.3867 80.5141 37.5893 80.2581 37.856C80.0021 38.112 79.7995 38.4213 79.6501 38.784C79.5115 39.1467 79.4421 39.5413 79.4421 39.968V40.16C79.4421 40.608 79.5115 41.0133 79.6501 41.376C79.7995 41.728 80.0021 42.0267 80.2581 42.272C80.5141 42.5173 80.8128 42.7093 81.1541 42.848C81.4955 42.976 81.8635 43.04 82.2581 43.04C82.6528 43.04 82.9941 42.9813 83.2821 42.864C83.5808 42.736 83.8315 42.576 84.0341 42.384C84.2475 42.1813 84.4128 41.952 84.5301 41.696C84.6581 41.44 84.7435 41.1733 84.7861 40.896L86.0341 41.184ZM20.48 68H18.032L16.992 57.376H16.8L15.76 68H13.312L12.176 56.8H13.392L14.464 67.424H14.656L15.664 56.8H18.128L19.136 67.424H19.328L20.4 56.8H21.616L20.48 68ZM23.6209 64.416C23.6529 65.2053 23.8982 65.84 24.3569 66.32C24.8155 66.8 25.4555 67.04 26.2769 67.04C26.6502 67.04 26.9755 66.9973 27.2529 66.912C27.5302 66.8267 27.7649 66.7093 27.9569 66.56C28.1595 66.4107 28.3195 66.24 28.4369 66.048C28.5649 65.8453 28.6662 65.632 28.7409 65.408L29.9249 65.728C29.7009 66.464 29.2849 67.0667 28.6769 67.536C28.0795 67.9947 27.2689 68.224 26.2449 68.224C25.6795 68.224 25.1569 68.128 24.6769 67.936C24.2075 67.7333 23.8022 67.4507 23.4609 67.088C23.1195 66.7253 22.8529 66.2933 22.6609 65.792C22.4689 65.2907 22.3729 64.736 22.3729 64.128V63.744C22.3729 63.1893 22.4689 62.672 22.6609 62.192C22.8635 61.712 23.1409 61.3013 23.4929 60.96C23.8449 60.608 24.2555 60.336 24.7249 60.144C25.2049 59.9413 25.7222 59.84 26.2769 59.84C26.9275 59.84 27.4875 59.9627 27.9569 60.208C28.4369 60.4427 28.8262 60.736 29.1249 61.088C29.4342 61.44 29.6582 61.824 29.7969 62.24C29.9462 62.656 30.0209 63.04 30.0209 63.392V64.416H23.6209ZM26.2769 61.024C25.9249 61.024 25.5942 61.0827 25.2849 61.2C24.9862 61.3067 24.7195 61.4613 24.4849 61.664C24.2609 61.8667 24.0742 62.1067 23.9249 62.384C23.7862 62.6507 23.6955 62.944 23.6529 63.264H28.7729C28.7515 62.9227 28.6662 62.6133 28.5169 62.336C28.3782 62.0587 28.1915 61.824 27.9569 61.632C27.7329 61.44 27.4715 61.2907 27.1729 61.184C26.8849 61.0773 26.5862 61.024 26.2769 61.024ZM32.9858 68H31.7378V56.8H32.9858V61.312H33.1778C33.4551 60.832 33.8391 60.4693 34.3298 60.224C34.8204 59.968 35.3538 59.84 35.9298 59.84C36.4204 59.84 36.8844 59.9307 37.3218 60.112C37.7591 60.2933 38.1431 60.5547 38.4738 60.896C38.8151 61.2373 39.0818 61.6587 39.2738 62.16C39.4764 62.6613 39.5778 63.232 39.5778 63.872V64.192C39.5778 64.8427 39.4818 65.4187 39.2898 65.92C39.0978 66.4213 38.8311 66.8427 38.4898 67.184C38.1591 67.5253 37.7698 67.7867 37.3218 67.968C36.8738 68.1387 36.3991 68.224 35.8978 68.224C35.6418 68.224 35.3804 68.192 35.1138 68.128C34.8471 68.0747 34.5911 67.9893 34.3458 67.872C34.1111 67.744 33.8924 67.5947 33.6898 67.424C33.4871 67.2427 33.3164 67.0293 33.1778 66.784H32.9858V68ZM35.6418 67.04C36.0258 67.04 36.3778 66.976 36.6978 66.848C37.0178 66.7093 37.2951 66.5173 37.5298 66.272C37.7751 66.0267 37.9618 65.728 38.0898 65.376C38.2284 65.024 38.2978 64.6293 38.2978 64.192V63.872C38.2978 63.4453 38.2284 63.0613 38.0898 62.72C37.9618 62.368 37.7751 62.0693 37.5298 61.824C37.2951 61.568 37.0124 61.3707 36.6818 61.232C36.3618 61.0933 36.0151 61.024 35.6418 61.024C35.2684 61.024 34.9218 61.0987 34.6018 61.248C34.2818 61.3867 33.9991 61.584 33.7538 61.84C33.5191 62.096 33.3324 62.4053 33.1938 62.768C33.0551 63.12 32.9858 63.5093 32.9858 63.936V64.128C32.9858 64.5653 33.0551 64.9653 33.1938 65.328C33.3324 65.68 33.5191 65.984 33.7538 66.24C33.9991 66.496 34.2818 66.6933 34.6018 66.832C34.9218 66.9707 35.2684 67.04 35.6418 67.04Z" fill="white"/>
<rect x="0.433013" y="0.75" width="49" height="99.0052" transform="matrix(0.866025 0.5 0 1 106.058 -0.216506)" stroke="white"/>
<path d="M114.589 48.4405C114.589 49.3125 114.402 49.8725 114.027 50.1205C113.66 50.3645 113.12 50.2805 112.406 49.8685C111.693 49.4565 111.128 48.9025 110.712 48.2065C110.303 47.5065 110.099 46.7205 110.099 45.8485V45.2005L110.972 45.7045V46.3525C110.972 46.8805 111.09 47.3725 111.325 47.8285C111.561 48.2845 111.921 48.6525 112.406 48.9325C112.891 49.2125 113.231 49.2485 113.425 49.0405C113.619 48.8325 113.716 48.4645 113.716 47.9365V42.9925L112.967 42.5605V41.6245L115.212 42.9205V43.8565L114.589 43.4965V48.4405ZM120.037 53.0983L119.913 53.0263C119.746 53.3303 119.514 53.4923 119.216 53.5123C118.925 53.5363 118.617 53.4543 118.291 53.2663C117.952 53.0703 117.637 52.8243 117.346 52.5283C117.055 52.2243 116.798 51.8803 116.577 51.4963C116.362 51.1083 116.192 50.6903 116.067 50.2423C115.943 49.7943 115.88 49.3223 115.88 48.8263V48.6343C115.88 48.1463 115.943 47.7503 116.067 47.4463C116.192 47.1423 116.362 46.9243 116.577 46.7923C116.798 46.6563 117.055 46.6043 117.346 46.6363C117.637 46.6683 117.945 46.7783 118.271 46.9663C118.624 47.1703 118.943 47.4463 119.227 47.7943C119.518 48.1383 119.746 48.5463 119.913 49.0183L120.037 49.0903V48.1543L120.848 48.6223V53.3503C120.848 53.5903 120.941 53.7643 121.128 53.8723L121.388 54.0223V54.8863L120.838 54.5683C120.602 54.4323 120.408 54.2323 120.256 53.9683C120.11 53.7083 120.037 53.4423 120.037 53.1703V53.0983ZM118.375 52.4263C118.617 52.5663 118.839 52.6423 119.04 52.6543C119.247 52.6703 119.424 52.6243 119.57 52.5163C119.715 52.4083 119.829 52.2463 119.913 52.0303C119.996 51.8063 120.037 51.5303 120.037 51.2023V51.0583C120.037 50.7383 119.996 50.4223 119.913 50.1103C119.829 49.7903 119.712 49.4903 119.559 49.2103C119.414 48.9343 119.237 48.6843 119.029 48.4603C118.828 48.2323 118.61 48.0503 118.375 47.9143C118.132 47.7743 117.91 47.6983 117.709 47.6863C117.509 47.6743 117.332 47.7203 117.179 47.8243C117.034 47.9243 116.92 48.0863 116.836 48.3103C116.753 48.5263 116.712 48.7943 116.712 49.1143V49.3063C116.712 49.9863 116.864 50.6063 117.169 51.1663C117.481 51.7223 117.883 52.1423 118.375 52.4263ZM126.089 56.5201L125.964 56.4481C125.798 56.7361 125.58 56.9141 125.309 56.9821C125.039 57.0501 124.696 56.9641 124.281 56.7241C123.996 56.5601 123.733 56.3521 123.491 56.1001C123.255 55.8601 123.051 55.5821 122.878 55.2661C122.711 54.9541 122.58 54.6101 122.483 54.2341C122.393 53.8621 122.348 53.4641 122.348 53.0401V49.4881L123.158 49.9561V53.3881C123.158 54.0121 123.269 54.5321 123.491 54.9481C123.712 55.3641 124.052 55.7041 124.509 55.9681C125.001 56.2521 125.386 56.2821 125.663 56.0581C125.947 55.8301 126.089 55.3921 126.089 54.7441V51.6481L126.899 52.1161V59.5321C126.899 59.8041 126.823 59.9841 126.671 60.0721C126.525 60.1641 126.335 60.1421 126.099 60.0061L123.158 58.3081V57.4441L125.808 58.9741C125.995 59.0821 126.089 59.0161 126.089 58.7761V56.5201ZM133.263 58.838C133.263 59.334 133.19 59.732 133.044 60.032C132.906 60.328 132.719 60.54 132.483 60.668C132.248 60.788 131.971 60.824 131.652 60.776C131.34 60.732 131.014 60.612 130.675 60.416C130.329 60.216 129.999 59.958 129.688 59.642C129.376 59.326 129.102 58.972 128.867 58.58C128.631 58.18 128.441 57.75 128.295 57.29C128.157 56.826 128.087 56.346 128.087 55.85V55.706C128.087 55.218 128.157 54.826 128.295 54.53C128.441 54.23 128.631 54.016 128.867 53.888C129.109 53.764 129.386 53.724 129.698 53.768C130.01 53.812 130.335 53.932 130.675 54.128C131.014 54.324 131.34 54.58 131.652 54.896C131.964 55.212 132.237 55.57 132.473 55.97C132.715 56.374 132.906 56.808 133.044 57.272C133.19 57.732 133.263 58.206 133.263 58.694V58.838ZM130.675 59.528C130.924 59.672 131.153 59.756 131.361 59.78C131.576 59.8 131.763 59.76 131.922 59.66C132.081 59.56 132.206 59.404 132.296 59.192C132.386 58.972 132.431 58.694 132.431 58.358V58.214C132.431 57.894 132.386 57.576 132.296 57.26C132.206 56.936 132.081 56.632 131.922 56.348C131.763 56.064 131.576 55.808 131.361 55.58C131.146 55.344 130.917 55.156 130.675 55.016C130.432 54.876 130.204 54.8 129.989 54.788C129.774 54.768 129.587 54.808 129.428 54.908C129.269 55.008 129.144 55.168 129.054 55.388C128.964 55.6 128.919 55.866 128.919 56.186V56.33C128.919 56.666 128.964 56.996 129.054 57.32C129.144 57.636 129.269 57.936 129.428 58.22C129.587 58.504 129.771 58.758 129.979 58.982C130.193 59.202 130.426 59.384 130.675 59.528ZM139.314 62.3318C139.314 62.8278 139.241 63.2258 139.096 63.5258C138.957 63.8218 138.77 64.0338 138.535 64.1618C138.299 64.2818 138.022 64.3178 137.703 64.2698C137.392 64.2258 137.066 64.1058 136.726 63.9098C136.38 63.7098 136.051 63.4518 135.739 63.1358C135.427 62.8198 135.154 62.4658 134.918 62.0738C134.683 61.6738 134.492 61.2438 134.347 60.7838C134.208 60.3198 134.139 59.8398 134.139 59.3438V59.1998C134.139 58.7118 134.208 58.3198 134.347 58.0238C134.492 57.7238 134.683 57.5098 134.918 57.3818C135.161 57.2578 135.438 57.2178 135.75 57.2618C136.061 57.3058 136.387 57.4258 136.726 57.6218C137.066 57.8178 137.392 58.0738 137.703 58.3898C138.015 58.7058 138.289 59.0638 138.524 59.4638C138.767 59.8678 138.957 60.3018 139.096 60.7658C139.241 61.2258 139.314 61.6998 139.314 62.1878V62.3318ZM136.726 63.0218C136.976 63.1658 137.204 63.2498 137.412 63.2738C137.627 63.2938 137.814 63.2538 137.974 63.1538C138.133 63.0538 138.258 62.8978 138.348 62.6858C138.438 62.4658 138.483 62.1878 138.483 61.8518V61.7078C138.483 61.3878 138.438 61.0698 138.348 60.7538C138.258 60.4298 138.133 60.1258 137.974 59.8418C137.814 59.5578 137.627 59.3018 137.412 59.0738C137.198 58.8378 136.969 58.6498 136.726 58.5098C136.484 58.3698 136.255 58.2938 136.041 58.2818C135.826 58.2618 135.639 58.3018 135.479 58.4018C135.32 58.5018 135.195 58.6618 135.105 58.8818C135.015 59.0938 134.97 59.3598 134.97 59.6798V59.8238C134.97 60.1598 135.015 60.4898 135.105 60.8138C135.195 61.1298 135.32 61.4298 135.479 61.7138C135.639 61.9978 135.822 62.2518 136.03 62.4758C136.245 62.6958 136.477 62.8778 136.726 63.0218ZM141.313 66.3896L140.502 65.9216V59.9696L141.313 60.4376V61.4456L141.437 61.5176C141.756 60.9176 142.31 60.8456 143.1 61.3016C143.696 61.6456 144.17 62.1356 144.524 62.7716C144.877 63.3996 145.054 64.1416 145.054 64.9976V68.5496L144.243 68.0816V64.7216C144.243 64.0976 144.122 63.5596 143.88 63.1076C143.637 62.6556 143.308 62.3096 142.892 62.0696C142.4 61.7856 142.012 61.7576 141.728 61.9856C141.451 62.2096 141.313 62.6456 141.313 63.2936V66.3896ZM112.844 59.5534L114.507 60.5134L115.484 69.0454L115.609 69.1174L116.585 61.7134L118.248 62.6734V71.0734L117.438 70.6054V62.6374L117.313 62.5654L116.336 69.9694L114.756 69.0574L113.78 60.5254L113.655 60.4534V68.4214L112.844 67.9534V59.5534ZM123.063 72.8452L122.938 72.7732C122.772 73.0772 122.54 73.2392 122.242 73.2592C121.951 73.2832 121.643 73.2012 121.317 73.0132C120.978 72.8172 120.662 72.5712 120.371 72.2752C120.08 71.9712 119.824 71.6272 119.602 71.2432C119.388 70.8552 119.218 70.4372 119.093 69.9892C118.968 69.5412 118.906 69.0692 118.906 68.5732V68.3812C118.906 67.8932 118.968 67.4972 119.093 67.1932C119.218 66.8892 119.388 66.6712 119.602 66.5392C119.824 66.4032 120.08 66.3512 120.371 66.3832C120.662 66.4152 120.971 66.5252 121.296 66.7132C121.65 66.9172 121.968 67.1932 122.252 67.5412C122.543 67.8852 122.772 68.2932 122.938 68.7652L123.063 68.8372V67.9012L123.874 68.3692V73.0972C123.874 73.3372 123.967 73.5112 124.154 73.6192L124.414 73.7692V74.6332L123.863 74.3152C123.628 74.1792 123.434 73.9792 123.281 73.7152C123.136 73.4552 123.063 73.1892 123.063 72.9172V72.8452ZM121.4 72.1732C121.643 72.3132 121.864 72.3892 122.065 72.4012C122.273 72.4172 122.45 72.3712 122.595 72.2632C122.741 72.1552 122.855 71.9932 122.938 71.7772C123.021 71.5532 123.063 71.2772 123.063 70.9492V70.8052C123.063 70.4852 123.021 70.1692 122.938 69.8572C122.855 69.5372 122.737 69.2372 122.585 68.9572C122.44 68.6812 122.263 68.4312 122.055 68.2072C121.854 67.9792 121.636 67.7972 121.4 67.6612C121.158 67.5212 120.936 67.4452 120.735 67.4332C120.534 67.4212 120.358 67.4672 120.205 67.5712C120.06 67.6712 119.945 67.8332 119.862 68.0572C119.779 68.2732 119.738 68.5412 119.738 68.8612V69.0532C119.738 69.7332 119.89 70.3532 120.195 70.9132C120.507 71.4692 120.908 71.8892 121.4 72.1732ZM125.966 72.841C125.986 73.445 126.146 74.013 126.444 74.545C126.742 75.077 127.157 75.497 127.691 75.805C127.933 75.945 128.145 76.035 128.325 76.075C128.505 76.115 128.657 76.115 128.782 76.075C128.914 76.039 129.018 75.971 129.094 75.871C129.177 75.767 129.243 75.645 129.291 75.505L130.06 76.189C129.915 76.657 129.645 76.953 129.25 77.077C128.862 77.197 128.335 77.065 127.67 76.681C127.303 76.469 126.963 76.201 126.652 75.877C126.347 75.549 126.083 75.185 125.862 74.785C125.64 74.385 125.467 73.961 125.342 73.513C125.217 73.065 125.155 72.613 125.155 72.157V71.869C125.155 71.453 125.217 71.101 125.342 70.813C125.474 70.529 125.654 70.325 125.883 70.201C126.111 70.069 126.378 70.019 126.683 70.051C126.994 70.079 127.331 70.197 127.691 70.405C128.113 70.649 128.477 70.951 128.782 71.311C129.094 71.667 129.347 72.033 129.541 72.409C129.742 72.789 129.887 73.161 129.977 73.525C130.074 73.893 130.123 74.209 130.123 74.473V75.241L125.966 72.841ZM127.691 71.293C127.462 71.161 127.247 71.081 127.046 71.053C126.852 71.021 126.679 71.037 126.527 71.101C126.381 71.169 126.26 71.279 126.163 71.431C126.073 71.579 126.014 71.765 125.986 71.989L129.312 73.909C129.298 73.645 129.243 73.381 129.146 73.117C129.056 72.857 128.934 72.611 128.782 72.379C128.636 72.151 128.467 71.941 128.273 71.749C128.086 71.561 127.892 71.409 127.691 71.293ZM132.235 79.1489L131.425 78.6809V72.7289L132.235 73.1969V74.2049L132.36 74.2769C132.679 73.6769 133.233 73.6049 134.023 74.0609C134.619 74.4049 135.093 74.8949 135.447 75.5309C135.8 76.1589 135.977 76.9009 135.977 77.7569V81.3089L135.166 80.8409V77.4809C135.166 76.8569 135.045 76.3189 134.802 75.8669C134.56 75.4149 134.231 75.0689 133.815 74.8289C133.323 74.5449 132.935 74.5169 132.651 74.7449C132.374 74.9689 132.235 75.4049 132.235 76.0529V79.1489ZM141.394 83.5247L141.269 83.4527C141.103 83.7167 140.875 83.8567 140.584 83.8727C140.3 83.8847 139.988 83.7927 139.648 83.5967C139.302 83.3967 138.976 83.1407 138.671 82.8287C138.367 82.5167 138.096 82.1647 137.861 81.7727C137.632 81.3847 137.449 80.9627 137.31 80.5067C137.178 80.0467 137.113 79.5727 137.113 79.0847V78.8927C137.113 78.4127 137.182 78.0247 137.32 77.7287C137.459 77.4247 137.643 77.2107 137.871 77.0867C138.1 76.9547 138.367 76.9087 138.671 76.9487C138.976 76.9887 139.295 77.1047 139.627 77.2967C140.002 77.5127 140.327 77.7967 140.604 78.1487C140.888 78.4967 141.11 78.8967 141.269 79.3487L141.394 79.4207V78.4847L142.205 78.9527V86.3687C142.205 86.6407 142.129 86.8207 141.976 86.9087C141.831 87.0007 141.64 86.9787 141.405 86.8427L138.048 84.9047V84.0407L141.114 85.8107C141.301 85.9187 141.394 85.8527 141.394 85.6127V83.5247ZM139.669 82.7207C139.912 82.8607 140.137 82.9387 140.345 82.9547C140.552 82.9707 140.733 82.9267 140.885 82.8227C141.044 82.7227 141.169 82.5667 141.259 82.3547C141.349 82.1347 141.394 81.8607 141.394 81.5327V81.3887C141.394 81.0687 141.349 80.7507 141.259 80.4347C141.169 80.1107 141.044 79.8067 140.885 79.5227C140.733 79.2427 140.549 78.9887 140.334 78.7607C140.126 78.5287 139.905 78.3447 139.669 78.2087C139.427 78.0687 139.198 77.9887 138.983 77.9687C138.775 77.9527 138.592 77.9947 138.432 78.0947C138.28 78.1987 138.159 78.3567 138.069 78.5687C137.985 78.7847 137.944 79.0527 137.944 79.3727V79.5647C137.944 79.9007 137.985 80.2247 138.069 80.5367C138.159 80.8527 138.28 81.1507 138.432 81.4307C138.592 81.7067 138.775 81.9567 138.983 82.1807C139.191 82.3967 139.42 82.5767 139.669 82.7207Z" fill="white"/>
</svg>
