<svg width="757" height="207" viewBox="0 0 757 207" fill="none" xmlns="http://www.w3.org/2000/svg">
<path d="M381.36 1.89521C379.798 0.333109 377.265 0.333108 375.703 1.89521L350.247 27.351C348.685 28.9131 348.685 31.4458 350.247 33.0079C351.809 34.57 354.342 34.57 355.904 33.0079L378.531 10.3805L401.159 33.0079C402.721 34.57 405.253 34.57 406.816 33.0079C408.378 31.4458 408.378 28.9131 406.816 27.3511L381.36 1.89521ZM378.531 4.72363L374.531 4.72363L374.531 150.684L378.531 150.684L382.531 150.684L382.531 4.72363L378.531 4.72363Z" fill="white"/>
<path d="M1.52704 174.172C-0.0350555 175.734 -0.0350555 178.266 1.52704 179.828L26.9829 205.284C28.545 206.846 31.0776 206.846 32.6397 205.284C34.2018 203.722 34.2018 201.19 32.6397 199.627L10.0123 177L32.6397 154.373C34.2018 152.81 34.2018 150.278 32.6397 148.716C31.0776 147.154 28.545 147.154 26.9829 148.716L1.52704 174.172ZM4.35547 177V181H150.316V177V173H4.35547V177Z" fill="white"/>
<path d="M755.537 179.828C757.1 178.266 757.1 175.734 755.537 174.172L730.082 148.716C728.519 147.154 725.987 147.154 724.425 148.716C722.863 150.278 722.863 152.81 724.425 154.373L747.052 177L724.425 199.627C722.863 201.19 722.863 203.722 724.425 205.284C725.987 206.846 728.519 206.846 730.082 205.284L755.537 179.828ZM752.709 177V173H606.749V177V181H752.709V177Z" fill="white"/>
</svg>
